<?xml version="1.0" encoding="UTF-8" standalone="no"?>
<svg width="120px" height="120px" viewBox="0 0 120 120" version="1.1" xmlns="http://www.w3.org/2000/svg" xmlns:xlink="http://www.w3.org/1999/xlink">
    <!-- Generator: Sketch 42 (36781) - http://www.bohemiancoding.com/sketch -->
    <title>Mask Copy</title>
    <desc>Created with Sketch.</desc>
    <defs></defs>
    <g id="Page-1" stroke="none" stroke-width="1" fill="none" fill-rule="evenodd">
        <g id="z" fill="#000000">
            <polygon id="Mask-Copy" points="120 63.6066632 120 64.0870351 119.996126 67.4496384 119.996126 67.9300103 119.996126 71.3003616 119.996126 71.7729855 119.984504 75.1549587 119.984504 75.6082128 119.96126 79.0250517 119.953512 79.4240702 119.899277 82.9300103 119.779184 86.8930785 119.75594 87.4083161 119.577738 90.584969 119.55062 90.9684917 119.26782 94.1180269 119.209711 94.6061467 119.136105 95.2259814 118.806818 97.503874 118.640238 98.4529959 118.361312 99.84375 118.16374 100.707645 117.745351 102.299845 117.307593 103.698347 116.687758 105.356405 116.350723 106.14282 115.901343 107.088068 114.855372 108.943698 114.142562 109.989669 113.220558 111.159607 112.046746 112.414773 111.306818 113.096591 110.404184 113.832645 109.106405 114.746901 108.192149 115.308626 106.634814 116.126033 105.306043 116.711002 104.337552 117.082903 103.895919 117.241736 102.524535 117.679494 100.916839 118.113378 100.479081 118.217975 99.7856405 118.372934 97.7208161 118.771952 96.6244835 118.942407 95.15625 119.143853 94.338843 119.240702 92.7698864 119.403409 90.8871384 119.558368 88.9152893 119.682335 87.1526343 119.767562 85.0606921 119.845041 83.4181302 119.887655 82.8292872 119.903151 81.206095 119.930269 79.6293905 119.953512 78.9165806 119.96126 77.347624 119.972882 75.8019112 119.984504 75.0348657 119.984504 73.4930269 119.992252 71.958936 119.996126 71.1725207 119.996126 69.6384298 119.996126 68.1082128 119.996126 67.3140496 119.996126 65.7838326 119.996126 64.2536157 120 63.4594525 120 61.9292355 119.996126 60.3990186 120 59.6009814 120 58.0707645 119.996126 56.5405475 120 55.7463843 120 54.2161674 119.996126 52.6859504 119.996126 51.8917872 119.996126 50.3615702 119.996126 48.8274793 119.996126 48.041064 119.996126 46.5069731 119.992252 44.9651343 119.984504 44.1980888 119.984504 42.652376 119.972882 41.0834194 119.96126 40.3706095 119.953512 38.7977789 119.930269 37.1707128 119.903151 36.5818698 119.887655 34.9393079 119.845041 33.1960227 119.783058 31.0847107 119.682335 29.1942149 119.562242 27.2301136 119.403409 25.661157 119.240702 24.84375 119.143853 23.3755165 118.942407 22.2791839 118.771952 20.2182335 118.372934 19.5209194 118.217975 19.0831612 118.113378 17.4754649 117.679494 16.1040806 117.241736 15.6624483 117.082903 14.6939566 116.711002 13.365186 116.126033 11.8078512 115.308626 10.893595 114.746901 9.59581612 113.832645 8.69318182 113.096591 7.95325413 112.414773 6.77944215 111.159607 5.85743802 109.989669 5.1446281 108.943698 4.09865702 107.088068 3.78873967 106.452738 3.31224174 105.356405 2.69240702 103.698347 2.25464876 102.299845 1.83626033 100.707645 1.63868802 99.84375 1.3597624 98.4529959 1.19318182 97.503874 0.863894628 95.2259814 0.790289256 94.6061467 0.732179752 94.1180269 0.449380165 90.9684917 0.422262397 90.584969 0.244059917 87.4083161 0.220816116 86.9356921 0.104597107 83.208936 0.0464876033 79.4240702 0.0387396694 79.0250517 0.0154958678 75.6082128 0.0154958678 75.1549587 0.00387396694 71.7729855 0.00387396694 71.3003616 0.00387396694 67.9300103 0.00387396694 67.4496384 0 64.0870351 0 63.6066632 0 60.240186 0 59.759814 0 56.3933368 0 55.9129649 0.00387396694 52.5503616 0.00387396694 52.0699897 0.00387396694 48.6996384 0.00387396694 48.2270145 0.0154958678 44.8450413 0.0154958678 44.3917872 0.0387396694 40.9749483 0.0464876033 40.5759298 0.10072314 37.0699897 0.220816116 33.1069215 0.244059917 32.5916839 0.422262397 29.415031 0.449380165 29.0315083 0.732179752 25.8819731 0.790289256 25.3938533 0.863894628 24.7740186 1.19318182 22.496126 1.3597624 21.5470041 1.63868802 20.15625 1.83626033 19.2923554 2.25464876 17.700155 2.69240702 16.3016529 3.31224174 14.643595 3.64927686 13.8571798 4.09865702 12.9119318 5.1446281 11.0563017 5.85743802 10.0103306 6.77944215 8.84039256 7.95325413 7.58522727 8.69318182 6.90340909 9.59581612 6.16735537 10.893595 5.25309917 11.8078512 4.69137397 13.365186 3.87396694 14.6939566 3.28899793 15.6624483 2.91709711 16.1040806 2.75826446 17.4754649 2.3205062 19.0831612 1.8866219 19.5209194 1.78202479 20.2182335 1.62706612 22.2791839 1.22804752 23.3755165 1.05759298 24.84375 0.856146694 25.661157 0.759297521 27.2301136 0.596590909 29.1128616 0.441632231 31.0847107 0.317665289 32.8473657 0.232438017 34.9393079 0.154958678 36.5818698 0.112345041 37.1707128 0.0968491736 38.7977789 0.069731405 40.3706095 0.0464876033 41.0834194 0.0387396694 42.652376 0.0271177686 44.1980888 0.0154958678 44.9651343 0.0154958678 46.5069731 0.00774793388 48.041064 0.00387396694 48.8274793 0.00387396694 50.3615702 0.00387396694 51.8917872 0.00387396694 52.6859504 0.00387396694 54.2161674 0.00387396694 55.7463843 0 56.5405475 0 58.0707645 0.00387396694 59.6009814 0 60.3990186 0 61.9292355 0.00387396694 63.4594525 0 64.2536157 0 65.7838326 0.00387396694 67.3140496 0.00387396694 68.1082128 0.00387396694 69.6384298 0.00387396694 71.1725207 0.00387396694 71.958936 0.00387396694 73.4930269 0.00774793388 75.0348657 0.0154958678 75.8019112 0.0154958678 77.347624 0.0271177686 78.9165806 0.0387396694 79.6293905 0.0464876033 81.206095 0.069731405 82.8292872 0.0968491736 83.4181302 0.112345041 85.0606921 0.154958678 86.8039773 0.216942149 88.9152893 0.317665289 90.8057851 0.437758264 92.7698864 0.596590909 94.338843 0.759297521 95.15625 0.856146694 96.6244835 1.05759298 97.7208161 1.22804752 99.7856405 1.62706612 100.479081 1.78202479 100.916839 1.8866219 102.524535 2.3205062 103.895919 2.75826446 104.337552 2.91709711 105.306043 3.28899793 106.634814 3.87396694 108.192149 4.69137397 109.106405 5.25309917 110.404184 6.16735537 111.306818 6.90340909 112.046746 7.58522727 113.220558 8.84039256 114.142562 10.0103306 114.855372 11.0563017 115.901343 12.9119318 116.21126 13.5472624 116.687758 14.643595 117.307593 16.3016529 117.745351 17.700155 118.16374 19.2923554 118.361312 20.15625 118.640238 21.5470041 118.806818 22.496126 119.136105 24.7740186 119.209711 25.3938533 119.26782 25.8819731 119.55062 29.0315083 119.577738 29.415031 119.75594 32.5916839 119.779184 33.0643079 119.895403 36.791064 119.953512 40.5759298 119.96126 40.9749483 119.984504 44.3917872 119.984504 44.8450413 119.996126 48.2270145 119.996126 48.6996384 119.996126 52.0699897 119.996126 52.5503616 120 55.9129649 120 56.3933368 120 59.759814"></polygon>
        </g>
    </g>
</svg>